<svg aria-hidden="true" style="position: absolute; width: 0; height: 0; overflow: hidden;" version="1.1" xmlns="http://www.w3.org/2000/svg" xmlns:xlink="http://www.w3.org/1999/xlink">
<defs>
<symbol id="icon-close-black-18dp-2-1" viewBox="0 0 32 32">
<path d="M32 3.223l-3.223-3.223-12.777 12.777-12.777-12.777-3.223 3.223 12.777 12.777-12.777 12.777 3.223 3.223 12.777-12.777 12.777 12.777 3.223-3.223-12.777-12.777 12.777-12.777z"></path>
</symbol>
<symbol id="icon-person-black-18dp-1" viewBox="0 0 32 32">
<path fill="#4d5ae5" style="fill: var(--color1, #4d5ae5)" d="M16 16c2.947 0 5.333-2.387 5.333-5.333s-2.387-5.333-5.333-5.333c-2.947 0-5.333 2.387-5.333 5.333s2.387 5.333 5.333 5.333zM16 18.667c-3.56 0-10.667 1.787-10.667 5.333v1.333c0 0.733 0.6 1.333 1.333 1.333h18.667c0.733 0 1.333-0.6 1.333-1.333v-1.333c0-3.547-7.107-5.333-10.667-5.333z"></path>
</symbol>
<symbol id="icon-email-black-18dp-1" viewBox="0 0 24 32">
<path d="M20 8h-16c-1.1 0-1.99 0.9-1.99 2l-0.010 12c0 1.1 0.9 2 2 2h16c1.1 0 2-0.9 2-2v-12c0-1.1-0.9-2-2-2zM19.6 12.25l-7.070 4.42c-0.32 0.2-0.74 0.2-1.060 0l-7.070-4.42c-0.25-0.16-0.4-0.43-0.4-0.72 0-0.67 0.73-1.070 1.3-0.72l6.7 4.19 6.7-4.19c0.57-0.35 1.3 0.050 1.3 0.72 0 0.29-0.15 0.56-0.4 0.72z"></path>
</symbol>
<symbol id="icon-phone-black-18dp-1" viewBox="0 0 24 32">
<path d="M19.635 18.487l-2.451-0.28c-0.589-0.067-1.167 0.135-1.582 0.55l-1.775 1.775c-2.731-1.389-4.969-3.618-6.359-6.359l1.785-1.785c0.415-0.415 0.618-0.994 0.55-1.582l-0.28-2.432c-0.116-0.975-0.936-1.708-1.92-1.708h-1.669c-1.090 0-1.997 0.907-1.93 1.997 0.511 8.24 7.102 14.821 15.332 15.332 1.090 0.068 1.997-0.839 1.997-1.93v-1.669c0.010-0.975-0.724-1.795-1.698-1.911z"></path>
</symbol>
<symbol id="icon-Button" viewBox="0 0 89 32">
<path fill="#4d5ae5" style="fill: var(--color1, #4d5ae5)" d="M4 0h80.5c1.105 0 2 0.895 2 2v24c0 1.105-0.895 2-2 2h-80.5c-1.105 0-2-0.895-2-2v-24c0-1.105 0.895-2 2-2z"></path>
<path fill="#fff" style="fill: var(--color2, #fff)" d="M38.293 15.035c0-0.117-0.018-0.221-0.055-0.313-0.034-0.091-0.095-0.174-0.184-0.25s-0.214-0.148-0.375-0.219c-0.159-0.073-0.362-0.147-0.609-0.223-0.271-0.083-0.521-0.176-0.75-0.277-0.227-0.104-0.425-0.224-0.594-0.359-0.169-0.138-0.301-0.296-0.395-0.473-0.094-0.18-0.141-0.387-0.141-0.621 0-0.232 0.048-0.443 0.145-0.633 0.099-0.19 0.238-0.354 0.418-0.492 0.182-0.141 0.397-0.249 0.645-0.324 0.247-0.078 0.521-0.117 0.82-0.117 0.422 0 0.785 0.078 1.090 0.234 0.307 0.156 0.543 0.366 0.707 0.629 0.167 0.263 0.25 0.553 0.25 0.871h-0.973c0-0.188-0.040-0.353-0.121-0.496-0.078-0.146-0.198-0.26-0.359-0.344-0.159-0.083-0.361-0.125-0.605-0.125-0.232 0-0.425 0.035-0.578 0.105s-0.268 0.165-0.344 0.285c-0.076 0.12-0.113 0.255-0.113 0.406 0 0.107 0.025 0.204 0.074 0.293 0.050 0.086 0.125 0.167 0.227 0.242 0.102 0.073 0.229 0.142 0.383 0.207s0.335 0.128 0.543 0.188c0.315 0.094 0.59 0.198 0.824 0.313 0.234 0.112 0.43 0.24 0.586 0.383s0.273 0.306 0.352 0.488c0.078 0.18 0.117 0.384 0.117 0.613 0 0.24-0.048 0.456-0.145 0.648-0.096 0.19-0.234 0.353-0.414 0.488-0.177 0.133-0.391 0.236-0.641 0.309-0.247 0.070-0.523 0.105-0.828 0.105-0.273 0-0.543-0.036-0.809-0.109-0.263-0.073-0.503-0.184-0.719-0.332-0.216-0.151-0.388-0.338-0.516-0.563-0.128-0.227-0.191-0.491-0.191-0.793h0.98c0 0.185 0.031 0.342 0.094 0.473 0.065 0.13 0.155 0.237 0.27 0.32 0.115 0.081 0.247 0.141 0.398 0.18 0.154 0.039 0.318 0.059 0.492 0.059 0.229 0 0.421-0.033 0.574-0.098 0.156-0.065 0.273-0.156 0.352-0.273s0.117-0.253 0.117-0.406zM42.235 16.578c-0.313 0-0.595-0.051-0.848-0.152-0.25-0.104-0.464-0.249-0.641-0.434-0.175-0.185-0.309-0.402-0.402-0.652s-0.141-0.52-0.141-0.809v-0.156c0-0.331 0.048-0.63 0.145-0.898s0.23-0.497 0.402-0.688c0.172-0.193 0.375-0.34 0.609-0.441s0.488-0.152 0.762-0.152c0.302 0 0.566 0.051 0.793 0.152s0.414 0.245 0.563 0.43c0.151 0.182 0.263 0.4 0.336 0.652 0.076 0.253 0.113 0.531 0.113 0.836v0.402h-3.266v-0.676h2.336v-0.074c-0.005-0.169-0.039-0.328-0.102-0.477-0.060-0.148-0.152-0.268-0.277-0.359s-0.292-0.137-0.5-0.137c-0.156 0-0.296 0.034-0.418 0.102-0.12 0.065-0.22 0.16-0.301 0.285s-0.143 0.276-0.188 0.453c-0.042 0.175-0.063 0.371-0.063 0.59v0.156c0 0.185 0.025 0.357 0.074 0.516 0.052 0.156 0.128 0.293 0.227 0.41s0.219 0.21 0.359 0.277c0.141 0.065 0.301 0.098 0.48 0.098 0.227 0 0.428-0.046 0.605-0.137s0.331-0.22 0.461-0.387l0.496 0.48c-0.091 0.133-0.21 0.26-0.355 0.383-0.146 0.12-0.324 0.217-0.535 0.293-0.208 0.076-0.451 0.113-0.727 0.113zM45.914 13.176v3.324h-0.941v-4.227h0.887l0.055 0.902zM45.746 14.23l-0.305-0.004c0.003-0.299 0.044-0.574 0.125-0.824 0.083-0.25 0.198-0.465 0.344-0.645 0.148-0.18 0.325-0.318 0.531-0.414 0.206-0.099 0.435-0.148 0.688-0.148 0.203 0 0.387 0.029 0.551 0.086 0.167 0.055 0.309 0.145 0.426 0.27 0.12 0.125 0.211 0.288 0.273 0.488 0.063 0.198 0.094 0.441 0.094 0.73v2.73h-0.945v-2.734c0-0.203-0.030-0.363-0.090-0.48-0.057-0.12-0.142-0.204-0.254-0.254-0.109-0.052-0.246-0.078-0.41-0.078-0.161 0-0.306 0.034-0.434 0.102s-0.236 0.16-0.324 0.277c-0.086 0.117-0.152 0.253-0.199 0.406s-0.070 0.318-0.070 0.492zM52.331 15.625v-5.125h0.946v6h-0.855l-0.090-0.875zM49.582 14.434v-0.082c0-0.32 0.038-0.612 0.113-0.875 0.075-0.266 0.185-0.493 0.328-0.684 0.143-0.193 0.318-0.34 0.523-0.441 0.206-0.104 0.438-0.156 0.695-0.156 0.255 0 0.48 0.050 0.672 0.148s0.357 0.241 0.492 0.426c0.135 0.182 0.243 0.401 0.324 0.656 0.081 0.253 0.138 0.534 0.172 0.844v0.262c-0.034 0.302-0.092 0.578-0.172 0.828s-0.189 0.466-0.324 0.648c-0.136 0.182-0.301 0.323-0.496 0.422-0.193 0.099-0.418 0.148-0.675 0.148-0.255 0-0.486-0.053-0.691-0.16-0.203-0.107-0.377-0.256-0.52-0.449s-0.253-0.419-0.328-0.68c-0.076-0.263-0.113-0.548-0.113-0.855zM50.523 14.352v0.082c0 0.193 0.017 0.372 0.050 0.539 0.036 0.167 0.093 0.314 0.168 0.441 0.075 0.125 0.173 0.224 0.293 0.297 0.123 0.070 0.269 0.105 0.438 0.105 0.214 0 0.389-0.047 0.528-0.141s0.246-0.22 0.324-0.379c0.081-0.162 0.136-0.341 0.164-0.539v-0.707c-0.016-0.154-0.048-0.297-0.098-0.43-0.047-0.133-0.111-0.249-0.191-0.348-0.081-0.102-0.181-0.18-0.3-0.234-0.117-0.057-0.257-0.086-0.418-0.086-0.172 0-0.318 0.037-0.438 0.109s-0.219 0.173-0.297 0.301c-0.075 0.128-0.132 0.276-0.168 0.445s-0.054 0.35-0.054 0.543z"></path>
</symbol>
</defs>
</svg>
